<?xml version="1.0" encoding="utf-8"?>
<!-- Generator: Adobe Illustrator 27.9.0, SVG Export Plug-In . SVG Version: 6.00 Build 0)  -->
<svg version="1.1" id="Layer_1" xmlns="http://www.w3.org/2000/svg" xmlns:xlink="http://www.w3.org/1999/xlink" x="0px" y="0px"
	 viewBox="0 0 3742.1 3742.1" style="enable-background:new 0 0 3742.1 3742.1;" xml:space="preserve">
<style type="text/css">
	.st0{fill:none;}
	.st1{fill:#2062AF;}
	.st2{fill:#3C9CD7;}
	.st3{fill:#FFFFFF;}
	.st4{fill:url(#SVGID_1_);}
	.st5{fill:url(#SVGID_00000042734194253472763850000011200860589394053537_);}
	.st6{fill:url(#SVGID_00000054236424993747657500000011734386307837915319_);}
	.st7{opacity:5.000000e-02;enable-background:new    ;}
	.st8{fill:url(#SVGID_00000013885376761875373080000004166042579081277336_);}
</style>
<path class="st0" d="M-80-80h3902v3902H-80V-80z"/>
<path class="st1" d="M2857.9,3306.7L1871,3572.4l-986.8-265.7L656.5,839.6h2429.1L2857.9,3306.7z"/>
<path class="st2" d="M1871,1039.5v2321l2.2,0.6l798.6-215l184.3-2106.6L1871,1039.5z"/>
<path d="M1311,477.2V330.3h214.2V169.7h-374.9v454.1h374.9V477.2H1311z M1910.6,330.3h149.8V169.7h-375v160.7
	c50.2,50.2,76.3,74.2,148.9,146.7c-42.4,0-148.9,0.2-148.9,0.1v146.6h375V477.2L1910.6,330.3z M2442,330.3h149.8V169.7h-375v160.7
	c50.2,50.2,76.3,74.2,148.9,146.7c-42.4,0-148.9,0.2-148.9,0.1v146.6h375V477.2L2442,330.3z"/>
<path class="st3" d="M1870.1,1656.3l-706.3,294.2l23.4,291.2l682.9-292l726.4-310.6l30.1-297.9L1870.1,1656.3z"/>
<linearGradient id="SVGID_1_" gradientUnits="userSpaceOnUse" x1="515.0316" y1="802.941" x2="515.0316" y2="676.827" gradientTransform="matrix(4.6418 0 0 4.6418 -873.6948 -1485.3649)">
	<stop  offset="0.387" style="stop-color:#D1D3D4;stop-opacity:0"/>
	<stop  offset="1" style="stop-color:#D1D3D4"/>
</linearGradient>
<path class="st4" d="M1163.8,1950.5l23.4,291.2l682.9-292v-293.4L1163.8,1950.5z"/>
<linearGradient id="SVGID_00000098942399800851023330000016505653266185857934_" gradientUnits="userSpaceOnUse" x1="672.605" y1="740.0393" x2="672.605" y2="608.9495" gradientTransform="matrix(4.6418 0 0 4.6418 -873.6948 -1485.3649)">
	<stop  offset="0.387" style="stop-color:#D1D3D4;stop-opacity:0"/>
	<stop  offset="1" style="stop-color:#D1D3D4"/>
</linearGradient>
<path style="fill:url(#SVGID_00000098942399800851023330000016505653266185857934_);" d="M2626.7,1341.3l-756.5,315.1v293.4
	l726.4-310.6L2626.7,1341.3z"/>
<linearGradient id="SVGID_00000108292162780841237950000004241424325587669132_" gradientUnits="userSpaceOnUse" x1="439.1846" y1="859.189" x2="742.0807" y2="859.189" gradientTransform="matrix(4.6418 0 0 4.6418 -873.6948 -1485.3649)">
	<stop  offset="0" style="stop-color:#E8E7E5"/>
	<stop  offset="1" style="stop-color:#FFFFFF"/>
</linearGradient>
<path style="fill:url(#SVGID_00000108292162780841237950000004241424325587669132_);" d="M1164.9,1950.5l23.4,291.2l1047.8,3.3
	l-23.4,388.3l-344.8,97.1l-331.4-83.7l-20.1-241h-308l40.2,465.3l622.7,184.1l619.3-180.8l80.3-923.9H1164.9z"/>
<path class="st7" d="M1870.1,1950.5h-706.3l23.4,291.2l682.9,2.2L1870.1,1950.5z M1870.1,2729.5l-3.3,0.9l-331.4-83.7l-20.1-241
	h-308l40.2,465.3l622.6,184.1V2729.5z"/>
<linearGradient id="SVGID_00000067940249582792101480000005859268279451488701_" gradientUnits="userSpaceOnUse" x1="425.2483" y1="641.041" x2="754.0958" y2="641.041" gradientTransform="matrix(4.6418 0 0 4.6418 -873.6948 -1485.3649)">
	<stop  offset="0" style="stop-color:#E8E7E5"/>
	<stop  offset="1" style="stop-color:#FFFFFF"/>
</linearGradient>
<path style="fill:url(#SVGID_00000067940249582792101480000005859268279451488701_);" d="M1100.2,1341.3h1526.4l-30.1,297.9H1137
	L1100.2,1341.3z"/>
<path class="st7" d="M1870.1,1341.3h-769.9l36.8,297.9h733.1L1870.1,1341.3z"/>
</svg>
