<?xml version="1.0" encoding="utf-8"?>
<!-- Generator: Adobe Illustrator 27.9.0, SVG Export Plug-In . SVG Version: 6.00 Build 0)  -->
<svg version="1.1" id="Layer_1" xmlns="http://www.w3.org/2000/svg" xmlns:xlink="http://www.w3.org/1999/xlink" x="0px" y="0px"
	 viewBox="0 0 560 400" style="enable-background:new 0 0 560 400;" xml:space="preserve">
<style type="text/css">
	.st0{fill:#21A366;}
	.st1{fill-rule:evenodd;clip-rule:evenodd;fill:#107C41;}
	.st2{fill:#33C481;}
	.st3{fill:#185C37;}
	.st4{fill-opacity:9.411800e-02;}
	.st5{fill-opacity:0.2;}
	.st6{fill:#107C41;}
	.st7{fill:#FFFFFF;}
	.st8{fill:none;}
</style>
<path class="st0" d="M325.2,41.7H204.6c-8.3,0-15.1,6.8-15.1,15.1v64.1L325.2,200l67.8,28.6l67.8-28.6v-79.1L325.2,41.7z"/>
<path class="st1" d="M189.6,120.9h135.7V200H189.6V120.9z"/>
<path class="st2" d="M445.8,41.7H325.2v79.1h135.7V56.8C460.9,48.5,454.1,41.7,445.8,41.7L445.8,41.7z"/>
<path class="st3" d="M325.2,200H189.6v143.2c0,8.3,6.8,15.1,15.1,15.1h241.2c8.3,0,15.1-6.8,15.1-15.1v-64.1L325.2,200z"/>
<path class="st1" d="M325.2,200h135.7v79.1H325.2V200z"/>
<g>
	<path class="st4" d="M287.5,98.2h-98v214.8h98c8.3,0,15.1-6.8,15.1-15.1V113.3C302.6,105.1,295.8,98.3,287.5,98.2L287.5,98.2z"/>
	<g>
		<path class="st5" d="M276.2,109.6h-86.7v214.8h86.7c8.3,0,15.1-6.8,15.1-15.1V124.6C291.3,116.4,284.5,109.6,276.2,109.6
			L276.2,109.6z"/>
		<path class="st5" d="M276.2,109.6h-86.7v192.2h86.7c8.3,0,15.1-6.8,15.1-15.1v-162C291.3,116.4,284.5,109.6,276.2,109.6
			L276.2,109.6z"/>
		<path class="st5" d="M264.9,109.6h-75.4v192.2h75.4c8.3,0,15.1-6.8,15.1-15.1v-162C280,116.4,273.2,109.6,264.9,109.6L264.9,109.6
			z"/>
	</g>
	<path class="st6" d="M114.2,109.6h150.7c8.3,0,15.1,6.8,15.1,15.1v150.7c0,8.3-6.8,15.1-15.1,15.1H114.2c-8.3,0-15.1-6.8-15.1-15.1
		V124.6C99.1,116.4,105.9,109.6,114.2,109.6L114.2,109.6z"/>
	<path class="st7" d="M139.1,256.5l36.6-56.7l-33.5-56.4h27l18.3,36c1.7,3.4,2.8,6,3.5,7.6h0.2c1.2-2.7,2.5-5.4,3.8-8l19.6-35.7
		h24.8l-34.4,56.1l35.2,57h-26.3L192.6,217c-1-1.7-1.8-3.5-2.5-5.3h-0.3c-0.6,1.8-1.4,3.5-2.4,5.1l-21.8,39.7L139.1,256.5z"/>
</g>
<path class="st8" d="M99.1,19.1h361.8v361.8H99.1V19.1z"/>
</svg>
