<?xml version="1.0" encoding="utf-8"?>
<!-- Generator: Adobe Illustrator 24.3.0, SVG Export Plug-In . SVG Version: 6.00 Build 0)  -->
<svg version="1.1" id="Layer_1" xmlns="http://www.w3.org/2000/svg" xmlns:xlink="http://www.w3.org/1999/xlink" x="0px" y="0px"
	 viewBox="0 0 512 512" style="enable-background:new 0 0 512 512;" xml:space="preserve">
<style type="text/css">
	.st0{fill:#001E36;}
	.st1{fill:#31A8FF;}
</style>
<g id="Lightroom_Classic" transform="translate(3343 308)">
	<path id="Прямоугольник_19" class="st0" d="M-3263.03-308h352.05c44.13,0,79.97,35.84,79.97,79.97v352.05
		c0,44.13-35.84,79.97-79.97,79.97h-352.05c-44.13,0-79.97-35.84-79.97-79.97v-352.05C-3343-272.16-3307.16-308-3263.03-308z"/>
	<path id="Контур_36" class="st1" d="M-3154.58,53.98L-3154.58,53.98c-0.31,1.33-1.02,2.56-2.05,3.38
		c-1.02,0.82-2.36,1.23-3.69,1.23h-115.81c-1.54,0.1-3.07-0.51-4.1-1.64c-0.92-1.13-1.43-2.66-1.43-4.2v-202.55
		c-0.2-2.66,1.84-5.02,4.51-5.22c0.2,0,0.41,0,0.72,0h33.79c1.33,0,2.56,0.51,3.48,1.43c0.82,0.92,1.13,2.15,1.13,3.38V23.57h83.76
		c1.54-0.1,2.97,0.51,3.99,1.54c0.92,1.23,1.23,2.76,0.82,4.2L-3154.58,53.98z"/>
	<path id="Контур_37" class="st1" d="M-3138.71-99c0.92-1.02,2.25-1.54,3.58-1.54h29.7c1.33,0,2.66,0.41,3.69,1.13
		c1.02,0.82,1.84,1.84,2.25,3.07c1.43,4.1,2.46,8.29,2.76,12.6c11.78-12.9,28.67-20.07,46.18-19.66c2.56-0.2,4.71,1.74,4.92,4.3
		c0,0.2,0,0.41,0,0.61v31.85c0.2,2.56-1.64,4.71-4.2,4.92c-0.41,0-0.82,0-1.23-0.1c-17.72-1.02-31.23,3.58-41.06,13.41
		c-1.43,1.54-2.15,3.58-2.05,5.73v96.26c0,1.43-0.51,2.76-1.54,3.69c-1.02,0.82-2.36,1.23-3.69,1.23h-33.18
		c-1.43,0.1-2.76-0.41-3.89-1.33c-1.02-1.02-1.64-2.46-1.64-3.89v-106.5c0-17-0.51-30.92-1.54-41.98
		C-3139.84-96.54-3139.53-97.88-3138.71-99z"/>
	<path id="Контур_38" class="st1" d="M-2887.93,54.8l-0.2,0.1c-10.75,4.4-25.6,6.55-44.24,6.55
		c-30.41,0-55.81-9.11-75.98-27.55c-20.28-18.53-30.21-46.39-30.21-83.05c0-32.56,9.83-58.98,29.8-78.85
		c20.17-20.17,46.59-30.11,79.16-30.11c19.15,0,33.79,2.15,43.62,6.86c1.13,0.41,2.15,1.23,2.76,2.36c0.51,1.13,0.82,2.36,0.82,3.58
		v27.44c0,0.72-0.1,1.54-0.2,2.25c-0.2,0.92-0.72,1.74-1.43,2.25c-0.92,0.61-1.95,0.82-3.07,0.61c-0.72-0.2-1.33-0.51-1.95-0.92
		c-12.19-6.04-25.7-9.01-39.22-8.4c-20.48,0-36.25,6.35-47.92,18.74l0,0c-11.57,12.19-17.61,29.7-17.61,53.04
		c-0.31,12.6,1.84,25.09,6.14,36.86c3.38,9.01,9.01,17,16.49,23.14c6.45,5.02,13.62,8.91,21.3,11.57
		c7.58,2.46,15.46,3.69,23.45,3.69c12.29,0.1,24.58-1.84,36.25-5.84c1.33-0.61,2.97-0.51,4.2,0.2c1.13,0.92,1.74,2.36,1.64,3.79
		v25.19C-2884.25,51.01-2885.58,53.47-2887.93,54.8L-2887.93,54.8z"/>
</g>
</svg>
